<?xml version="1.0" encoding="iso-8859-1"?>
<!-- Generator: Adobe Illustrator 19.0.0, SVG Export Plug-In . SVG Version: 6.00 Build 0)  -->
<svg version="1.1" id="Layer_1" xmlns="http://www.w3.org/2000/svg" xmlns:xlink="http://www.w3.org/1999/xlink" x="0px" y="0px"
	 viewBox="0 0 511.988 511.988" style="enable-background:new 0 0 511.988 511.988;" xml:space="preserve">
<path style="fill:#F6BB42;" d="M454.161,173.441C261.415,364.992,25.569,156.653,25.569,156.653s-4.171-0.656-16.476,14.828
	c-12.304,15.484-8.555,19.117-8.555,19.117C122.973,474.46,476.02,368.509,499.863,217.355l-1.406-30.015l-8.547-28.593
	l-6.234-3.438c-16.108,15.07-8.015,16.484-8.015,16.484L454.161,173.441z"/>
<path style="fill:#434A54;" d="M21.311,170.598c0.234-3.461-1.219-6.641-3.648-8.757c-2.266,2.179-5.094,5.265-8.57,9.64
	c-2.07,2.609-3.68,4.867-4.938,6.843c1.617,1.25,3.602,2.047,5.789,2.195C15.827,180.917,20.913,176.472,21.311,170.598z"/>
<path style="fill:#FFCE54;" d="M437.958,168.988C295.523,400.414,33.85,262.908,33.85,262.908s-4.211,0.344-12.539,18.273
	c-8.328,17.938-3.828,20.594-3.828,20.594c185.605,247.229,503.958,61.404,491.677-91.124c0,0-4.422-23.57-8.406-28.851
	c-4-5.281,11.234-69.811,11.234-69.811L458.395,89.77c0,33.773-2.89,65.554-7.89,68.827
	C445.505,161.879,437.958,168.988,437.958,168.988z"/>
<path style="fill:#434A54;" d="M17.944,289.525c1.312,0.578,2.758,0.906,4.281,0.906c5.89,0,10.664-4.781,10.664-10.672
	c0-4.141-2.359-7.719-5.797-9.477c-1.633,2.602-3.562,6.117-5.781,10.898C19.796,284.447,18.71,287.197,17.944,289.525z"/>
<path style="fill:#F6BB42;" d="M458.395,89.771c0,33.773-2.89,65.554-7.89,68.827c23.562,1.336,50.248,23.202,50.248,23.202
	c-4-5.281,11.234-69.811,11.234-69.811L458.395,89.771z"/>
<g style="opacity:0.2;">
	<path style="fill:#FFFFFF;" d="M500.754,181.8c-4-5.281,11.234-69.811,11.234-69.811l-23.922-9.922
		c-4.172,18.781-11.577,54.522-8.655,58.397c3.999,5.289,8.405,28.851,8.405,28.851C499.175,330.398,227.682,499.958,39.99,328.977
		c187.652,205.448,480.966,28.202,469.169-118.326C509.159,210.651,504.737,187.081,500.754,181.8z"/>
</g>
<g>
</g>
<g>
</g>
<g>
</g>
<g>
</g>
<g>
</g>
<g>
</g>
<g>
</g>
<g>
</g>
<g>
</g>
<g>
</g>
<g>
</g>
<g>
</g>
<g>
</g>
<g>
</g>
<g>
</g>
</svg>
