<?xml version="1.0" encoding="iso-8859-1"?>
<!-- Generator: Adobe Illustrator 19.0.0, SVG Export Plug-In . SVG Version: 6.00 Build 0)  -->
<svg version="1.1" id="Layer_1" xmlns="http://www.w3.org/2000/svg" xmlns:xlink="http://www.w3.org/1999/xlink" x="0px" y="0px"
	 viewBox="0 0 491.54 491.54" style="enable-background:new 0 0 491.54 491.54;" xml:space="preserve">
<g>
	<g>
		<path d="M282.58,387.484H36.909C16.534,387.484,0,404.016,0,424.394v67.115h319.488v-67.115
			C319.488,404.016,302.955,387.484,282.58,387.484z"/>
	</g>
</g>
<g>
	<g>
		<path d="M484.916,392.69L260.66,168.433l43.315-43.238c7.142,6.298,18.125,5.99,24.883-0.768c7.066-7.142,7.066-18.586,0-25.728
			L235.47,5.387c-7.066-7.142-18.586-7.142-25.651,0c-7.142,7.066-7.142,18.586,0,25.651l-0.768-0.768L90.471,148.772l0.768,0.844
			c-7.066-7.142-18.586-7.142-25.651,0c-7.142,7.066-7.142,18.586,0,25.652l93.312,93.388c7.142,7.066,18.662,7.066,25.728,0
			c7.066-7.142,7.066-18.585,0-25.726l0.768,0.766l43.315-43.238l224.179,224.18c8.832,8.832,23.194,8.832,32.026,0
			C493.748,415.806,493.748,401.521,484.916,392.69z"/>
	</g>
</g>
<g>
</g>
<g>
</g>
<g>
</g>
<g>
</g>
<g>
</g>
<g>
</g>
<g>
</g>
<g>
</g>
<g>
</g>
<g>
</g>
<g>
</g>
<g>
</g>
<g>
</g>
<g>
</g>
<g>
</g>
</svg>
