<?xml version="1.0" encoding="iso-8859-1"?>
<!-- Generator: Adobe Illustrator 18.0.0, SVG Export Plug-In . SVG Version: 6.00 Build 0)  -->
<!DOCTYPE svg PUBLIC "-//W3C//DTD SVG 1.1//EN" "http://www.w3.org/Graphics/SVG/1.1/DTD/svg11.dtd">
<svg version="1.1" id="Capa_1" xmlns="http://www.w3.org/2000/svg" xmlns:xlink="http://www.w3.org/1999/xlink" x="0px" y="0px"
	 viewBox="0 0 400.746 400.746" style="enable-background:new 0 0 400.746 400.746;" xml:space="preserve">
<g>
	<path d="M163.775,58.293c6.971,12.984,12.148,26.594,16.184,40.555c6.434,1.211,13.188,1.955,20.414,1.955
		c4.637,0,9.073-0.316,13.363-0.852c-11.871-27.975-27.332-55.242-50.188-75.049c-4.36-3.686-10.972-10.844-17.242-10.287
		c-8.706,0.772-8.051,9.943-3.741,14.889C150.635,38.763,157.921,47.349,163.775,58.293z"/>
	<path d="M217.885,77.41c15.609,16.932,32.248,7.639,46.406-5.754c17.645-16.672,41.592-60.687,36.881-66.557
		c-4.713-5.867-62.918-10.58-83.055,9.137C184.047,47.595,217.885,77.41,217.885,77.41z"/>
	<path d="M331.877,105.871c-10.517-6.791-20.257-9.955-30.654-9.955c-12.508,0-24.732,4.533-38.888,9.783
		c-17.446,6.469-37.221,13.801-61.962,13.801c-24.741,0-44.517-7.332-61.964-13.803c-14.156-5.248-26.381-9.781-38.887-9.781
		c-10.397,0-20.137,3.164-30.654,9.955c-54.47,35.182-38.047,109.109-26.055,163.088l1.132,5.105
		c7.787,35.266,21.014,66.982,37.246,89.311c18.026,24.799,38.622,37.371,61.213,37.371c7.595,0,15.534-1.455,23.594-4.326
		c3.831-1.365,6.859-3.262,10.063-5.268c5.62-3.52,11.99-7.508,21.645-7.508c0.872,0,4.462,0,5.334,0
		c9.656,0,16.025,3.988,21.645,7.508c3.204,2.006,6.231,3.902,10.064,5.268c8.058,2.871,15.996,4.326,23.594,4.326
		c0.001,0,0.005,0,0.006,0c22.592,0.002,43.184-12.57,61.208-37.367c16.229-22.326,29.456-54.045,37.244-89.313l1.132-5.105
		C369.925,214.98,386.349,141.052,331.877,105.871z"/>
</g>
<g>
</g>
<g>
</g>
<g>
</g>
<g>
</g>
<g>
</g>
<g>
</g>
<g>
</g>
<g>
</g>
<g>
</g>
<g>
</g>
<g>
</g>
<g>
</g>
<g>
</g>
<g>
</g>
<g>
</g>
</svg>
