<svg width="64px" height="64px" viewBox="0 0 64 64" xmlns="http://www.w3.org/2000/svg">
  <g fill="none" fill-rule="evenodd">
    <path fill="#80D25B" d="M48.5044647,18.529591 C51.2658885,18.529591 53.5044647,16.1876959 53.5044647,13.2988218 C53.5044647,10.4099477 48.5044647,1.52959101 48.5044647,1.52959101 C48.5044647,1.52959101 43.5044647,10.4099477 43.5044647,13.2988218 C43.5044647,16.1876959 45.743041,18.529591 48.5044647,18.529591 Z" transform="rotate(75 48.504 10.03)"/>
    <path fill="#80D25B" d="M18.2420551,18.529591 C21.0034789,18.529591 23.2420551,16.1876959 23.2420551,13.2988218 C23.2420551,10.4099477 18.2420551,1.52959101 18.2420551,1.52959101 C18.2420551,1.52959101 13.2420551,10.4099477 13.2420551,13.2988218 C13.2420551,16.1876959 15.4806314,18.529591 18.2420551,18.529591 Z" transform="scale(-1 1) rotate(75 0 -13.744)"/>
    <path stroke="#22BA8E" stroke-linecap="round" stroke-width="2" d="M45,11 C38.372583,11 33,16.372583 33,23"/>
    <path stroke="#22BA8E" stroke-linecap="round" stroke-width="2" d="M32.7375904,11 C26.1101734,11 20.7375904,16.372583 20.7375904,23" transform="matrix(-1 0 0 1 53.475 0)"/>
    <path fill="#E43535" d="M32.54839,23.1859117 C29.982158,20.2466057 26.2074649,18.389587 21.9990418,18.389587 C14.2675845,18.389587 8,24.6571715 8,32.3886288 C8,40.1200861 16.6517079,61.4034246 24.3831652,61.4034246 C26.1093147,61.4034246 30.1533492,60.4345176 32.54839,58.7389909 C34.9434309,60.4345176 38.9874654,61.4034246 40.7136149,61.4034246 C48.4450722,61.4034246 57.0967801,40.1200861 57.0967801,32.3886288 C57.0967801,24.6571715 50.8291956,18.389587 43.0977383,18.389587 C38.8893152,18.389587 35.1146221,20.2466057 32.54839,23.1859117 Z"/>
    <path stroke="#FF78C7" stroke-linecap="round" stroke-width="2" d="M22,23 C16.4771525,23 12,27.4771525 12,33"/>
  </g>
</svg>
