<?xml version="1.0" encoding="iso-8859-1"?>
<!-- Generator: Adobe Illustrator 19.0.0, SVG Export Plug-In . SVG Version: 6.00 Build 0)  -->
<svg version="1.1" id="Layer_1" xmlns="http://www.w3.org/2000/svg" xmlns:xlink="http://www.w3.org/1999/xlink" x="0px" y="0px"
	 viewBox="0 0 512.001 512.001" style="enable-background:new 0 0 512.001 512.001;" xml:space="preserve">
<g transform="translate(-1)">
	<path style="fill:#659C35;" d="M501.223,146.877c15.704-15.704,15.704-41.172,0-56.885c-2.701-2.701-5.764-4.767-8.942-6.541
		c10.143-15.59,8.404-36.661-5.279-50.335c-14.68-14.68-37.782-15.457-53.575-2.701c-1.713-6.815-5.085-13.303-10.417-18.635
		c-15.704-15.704-41.172-15.704-56.885,0c-14.354,14.362-15.431,36.793-3.531,52.559c-11.458-1.024-23.252,2.666-32.018,11.432
		c-15.704,15.713-15.704,41.181,0,56.885c10.796,10.796,26.147,13.983,39.821,9.949c-4.034,13.674-0.839,29.034,9.949,39.821
		c15.713,15.713,41.172,15.713,56.885,0c8.766-8.766,12.456-20.559,11.441-32.009C464.43,162.308,486.861,161.24,501.223,146.877"/>
	<g>
		<path style="fill:#A4E869;" d="M309.969,211.864c-2.26,0-4.52-0.865-6.241-2.586c-3.452-3.452-3.452-9.031,0-12.482
			L418.487,82.037c3.452-3.452,9.031-3.452,12.482,0c3.452,3.452,3.452,9.031,0,12.482L316.21,209.278
			C314.489,210.999,312.229,211.864,309.969,211.864"/>
		<path style="fill:#A4E869;" d="M424.728,132.416h-35.31c-4.873,0-8.828-3.955-8.828-8.828c0-4.873,3.955-8.828,8.828-8.828h35.31
			c4.873,0,8.828,3.955,8.828,8.828C433.555,128.461,429.6,132.416,424.728,132.416"/>
		<path style="fill:#A4E869;" d="M424.728,97.106c-4.873,0-8.828-3.955-8.828-8.828V61.795c0-4.873,3.955-8.828,8.828-8.828
			s8.828,3.955,8.828,8.828v26.483C433.555,93.151,429.6,97.106,424.728,97.106"/>
		<path style="fill:#A4E869;" d="M442.383,97.106h-17.655c-4.873,0-8.828-3.955-8.828-8.828c0-4.873,3.955-8.828,8.828-8.828h17.655
			c4.873,0,8.828,3.955,8.828,8.828C451.21,93.151,447.256,97.106,442.383,97.106"/>
		<path style="fill:#A4E869;" d="M389.417,132.416c-4.873,0-8.828-3.955-8.828-8.828V97.106c0-4.873,3.955-8.828,8.828-8.828
			c4.873,0,8.828,3.955,8.828,8.828v26.483C398.245,128.461,394.29,132.416,389.417,132.416"/>
	</g>
	<path style="fill:#ED8F1F;" d="M331.196,189.184c-2.154-2.745-4.626-5.217-7.371-7.371c-14.036-11.008-62.605-42.69-108.676,3.381
		C160.559,239.783,75.973,353.121,1,512c158.888-74.964,272.225-159.559,326.815-214.148
		C373.886,251.78,342.204,203.219,331.196,189.184"/>
	<g>
		<path style="fill:#DD7017;" d="M200.133,200.969c1.192,1.103,2.595,2.004,4.317,2.313c10.664,1.907,41.357,9.869,55.137,23.649
			c1.73,1.73,3.99,2.586,6.241,2.586c2.26,0,4.52-0.856,6.241-2.586c3.452-3.443,3.452-9.031,0-12.482
			c-16.278-16.278-46.239-24.488-58.774-27.348C209.084,191.365,204.67,196.035,200.133,200.969"/>
		<path style="fill:#DD7017;" d="M154.508,255.675c0.945,0.724,2.03,1.289,3.257,1.589c16.825,4.149,38.497,12.279,48.861,22.634
			c1.721,1.721,3.981,2.586,6.241,2.586c2.26,0,4.52-0.865,6.241-2.586c3.443-3.443,3.443-9.031,0-12.482
			c-14.345-14.345-39.715-22.652-53.222-26.271C162.144,245.832,158.366,250.652,154.508,255.675"/>
		<path style="fill:#DD7017;" d="M116.228,313.334c16.26,5.049,30.252,12.35,37.429,19.527c1.73,1.73,3.981,2.586,6.241,2.586
			s4.52-0.856,6.241-2.586c3.452-3.443,3.452-9.031,0-12.482c-11.741-11.741-30.376-19.218-42.002-23.04
			c-3.372,4.846-6.744,9.71-10.161,14.769C114.683,312.575,115.381,313.069,116.228,313.334"/>
		<path style="fill:#DD7017;" d="M73.698,377.954c8.527,3.558,21.407,11.114,26.995,16.702c1.721,1.721,3.981,2.586,6.241,2.586
			c2.26,0,4.52-0.865,6.241-2.586c3.452-3.452,3.452-9.031,0-12.482c-7.362-7.362-21.336-15.563-31.391-19.941
			c-3.046,4.97-6.091,9.887-9.145,15.007C73.009,377.46,73.292,377.787,73.698,377.954"/>
	</g>
</g>
<g>
</g>
<g>
</g>
<g>
</g>
<g>
</g>
<g>
</g>
<g>
</g>
<g>
</g>
<g>
</g>
<g>
</g>
<g>
</g>
<g>
</g>
<g>
</g>
<g>
</g>
<g>
</g>
<g>
</g>
</svg>
